<svg xmlns="http://www.w3.org/2000/svg" viewBox="0 0 512 512">
  <defs>
    <linearGradient id="grad" x1="0%" y1="0%" x2="100%" y2="100%">
      <stop offset="0%" style="stop-color:#8B30EE;stop-opacity:1" />
      <stop offset="100%" style="stop-color:#C900D4;stop-opacity:1" />
    </linearGradient>
  </defs>
  <!-- Background circle -->
  <circle cx="256" cy="256" r="240" fill="url(#grad)"/>
  <!-- Balloon 1 -->
  <ellipse cx="200" cy="200" rx="60" ry="75" fill="#FFFFFF" opacity="0.95"/>
  <path d="M200 275 Q200 290 195 300 Q205 290 200 275" fill="#FFFFFF" opacity="0.95"/>
  <!-- Balloon 2 -->
  <ellipse cx="312" cy="180" rx="55" ry="70" fill="#FFFFFF" opacity="0.85"/>
  <path d="M312 250 Q312 265 307 275 Q317 265 312 250" fill="#FFFFFF" opacity="0.85"/>
  <!-- Balloon 3 -->
  <ellipse cx="256" cy="280" rx="65" ry="80" fill="#FFFFFF" opacity="0.9"/>
  <path d="M256 360 Q256 375 251 385 Q261 375 256 360" fill="#FFFFFF" opacity="0.9"/>
  <!-- Strings -->
  <path d="M195 300 Q190 340 200 380" stroke="#FFFFFF" stroke-width="2" fill="none" opacity="0.7"/>
  <path d="M307 275 Q302 320 312 360" stroke="#FFFFFF" stroke-width="2" fill="none" opacity="0.7"/>
  <path d="M251 385 Q246 410 256 440" stroke="#FFFFFF" stroke-width="2" fill="none" opacity="0.7"/>
</svg>
